<svg width="41" height="41" viewBox="0 0 41 41" fill="none" xmlns="http://www.w3.org/2000/svg">
<path d="M20.5 39.2917C22.9687 39.2984 25.4143 38.8154 27.6951 37.8706C29.9759 36.9258 32.0466 35.5379 33.7874 33.7874C34.1077 33.4671 34.2876 33.0326 34.2876 32.5796C34.2876 32.1266 34.1077 31.6922 33.7874 31.3718L22.9156 20.5L33.7874 9.62816C34.1077 9.3078 34.2876 8.87336 34.2876 8.42037C34.2876 7.96738 34.1077 7.53294 33.7874 7.21258C31.6023 5.02732 28.9119 3.41471 25.9546 2.51758C22.9974 1.62045 19.8645 1.4665 16.8335 2.06937C13.8025 2.67224 10.967 4.01332 8.57813 5.97382C6.18925 7.93431 4.32075 10.4537 3.13813 13.3088C1.95552 16.1639 1.4953 19.2666 1.79825 22.3421C2.10119 25.4176 3.15794 28.3709 4.87489 30.9404C6.59185 33.5099 8.91601 35.6163 11.6415 37.073C14.367 38.5297 17.4096 39.2918 20.5 39.2917ZM20.5 5.125C23.9892 5.11496 27.3765 6.30093 30.0974 8.48529L19.2922 19.2922C18.9719 19.6126 18.792 20.047 18.792 20.5C18.792 20.953 18.9719 21.3874 19.2922 21.7078L30.0974 32.5147C28.1784 34.047 25.9202 35.0974 23.512 35.5778C21.1037 36.0583 18.6154 35.9549 16.2552 35.2763C13.8951 34.5977 11.7319 33.3637 9.9466 31.6775C8.1613 29.9912 6.80589 27.9019 5.9938 25.5843C5.18172 23.2668 4.93659 20.7884 5.27894 18.3566C5.62129 15.9249 6.54114 13.6105 7.96153 11.6072C9.38191 9.60391 11.2615 7.97 13.4429 6.84222C15.6244 5.71444 18.0443 5.1256 20.5 5.125ZM39.2917 20.5C39.2917 21.1757 39.0913 21.8363 38.7159 22.3982C38.3404 22.9601 37.8068 23.398 37.1825 23.6566C36.5582 23.9152 35.8712 23.9828 35.2084 23.851C34.5457 23.7192 33.9369 23.3938 33.4591 22.9159C32.9812 22.4381 32.6558 21.8293 32.524 21.1666C32.3922 20.5038 32.4598 19.8168 32.7184 19.1925C32.977 18.5682 33.4149 18.0346 33.9768 17.6591C34.5387 17.2837 35.1992 17.0833 35.875 17.0833C36.7812 17.0833 37.6502 17.4433 38.2909 18.084C38.9317 18.7248 39.2917 19.5938 39.2917 20.5ZM13.6667 11.9583C13.6667 11.2826 13.8671 10.622 14.2425 10.0601C14.6179 9.49826 15.1515 9.06034 15.7758 8.80174C16.4001 8.54314 17.0871 8.47548 17.7499 8.60731C18.4127 8.73914 19.0215 9.06455 19.4993 9.54238C19.9771 10.0202 20.3025 10.629 20.4344 11.2918C20.5662 11.9545 20.4985 12.6415 20.2399 13.2658C19.9813 13.8901 19.5434 14.4238 18.9815 14.7992C18.4197 15.1746 17.7591 15.375 17.0833 15.375C16.1772 15.375 15.3081 15.015 14.6674 14.3743C14.0266 13.7335 13.6667 12.8645 13.6667 11.9583Z" fill="white"/>
</svg>
